<svg width="227" height="60" viewBox="0 0 227 60" fill="none" xmlns="http://www.w3.org/2000/svg">
<path d="M67.8209 37.7344V21.5965H72.0912V27.6047H76.9079V21.5965H81.1782V37.7344H76.9079V31.3289H72.0912V37.7344H67.8209ZM88.1705 38.0323C86.8133 38.0323 85.8284 37.5771 85.216 36.6668C84.6036 35.7398 84.2975 34.5068 84.2975 32.9674V25.3207H88.5678V32.4213C88.5678 33.2159 88.6672 33.7453 88.8657 34.0101C89.0808 34.275 89.3954 34.4074 89.8093 34.4074C90.2063 34.4074 90.5375 34.3247 90.8023 34.1592C91.0672 33.9937 91.332 33.7123 91.5969 33.315V25.3207H95.8672V37.7344H92.3912L92.0933 36.0959H91.9939C91.4975 36.6916 90.943 37.1634 90.3305 37.511C89.7348 37.8586 89.0148 38.0323 88.1705 38.0323ZM103.269 42.8489C102.325 42.8489 101.456 42.7413 100.662 42.5262C99.8675 42.3274 99.2302 42.0047 98.7502 41.5577C98.2866 41.111 98.0551 40.515 98.0551 39.7702C98.0551 38.7937 98.6342 37.9992 99.793 37.3868V37.2874C99.4756 37.0528 99.1988 36.7676 98.9736 36.4434C98.7584 36.0959 98.6508 35.6653 98.6508 35.1523C98.6508 34.7219 98.7751 34.2998 99.0233 33.8862C99.2881 33.4723 99.6275 33.1165 100.041 32.8186V32.7192C99.5942 32.4213 99.1972 31.9992 98.8496 31.4529C98.5184 30.8902 98.353 30.2529 98.353 29.5413C98.353 28.515 98.6012 27.671 99.0978 27.0089C99.6108 26.3301 100.273 25.8337 101.084 25.5192C101.895 25.1883 102.756 25.0226 103.666 25.0226C104.394 25.0226 105.056 25.1219 105.652 25.3207H110.27V28.3992H108.483C108.532 28.5483 108.574 28.7386 108.607 28.9702C108.656 29.2019 108.681 29.4419 108.681 29.6902C108.681 30.6668 108.458 31.4613 108.011 32.0737C107.564 32.6695 106.96 33.1083 106.198 33.3895C105.437 33.671 104.593 33.8116 103.666 33.8116C103.252 33.8116 102.789 33.7537 102.276 33.6377C102.077 33.8198 101.978 34.0598 101.978 34.3577C101.978 34.6226 102.11 34.8129 102.375 34.9289C102.656 35.0447 103.103 35.1026 103.716 35.1026H105.578C107.134 35.1026 108.334 35.3592 109.178 35.8723C110.038 36.3689 110.469 37.188 110.469 38.3302C110.469 39.2241 110.171 40.0102 109.575 40.6889C108.996 41.3674 108.168 41.8971 107.092 42.2777C106.016 42.6586 104.742 42.8489 103.269 42.8489ZM103.666 31.2792C104.063 31.2792 104.386 31.1386 104.634 30.8571C104.883 30.5759 105.007 30.1371 105.007 29.5413C105.007 28.9619 104.883 28.5398 104.634 28.275C104.386 27.9937 104.063 27.8531 103.666 27.8531C103.269 27.8531 102.946 27.9937 102.698 28.275C102.449 28.5398 102.325 28.9619 102.325 29.5413C102.325 30.1371 102.449 30.5759 102.698 30.8571C102.946 31.1386 103.269 31.2792 103.666 31.2792ZM103.964 40.2171C104.659 40.2171 105.238 40.1095 105.702 39.8944C106.165 39.6956 106.397 39.4226 106.397 39.075C106.397 38.7441 106.248 38.5371 105.95 38.4544C105.669 38.3716 105.263 38.3302 104.734 38.3302H103.765C103.269 38.3302 102.888 38.3137 102.623 38.2805C102.375 38.2641 102.16 38.231 101.978 38.1813C101.68 38.4792 101.531 38.7771 101.531 39.075C101.531 39.4723 101.754 39.7619 102.201 39.9441C102.665 40.1262 103.252 40.2171 103.964 40.2171ZM116.822 42.8489C115.879 42.8489 115.01 42.7413 114.215 42.5262C113.421 42.3274 112.783 42.0047 112.303 41.5577C111.84 41.111 111.608 40.515 111.608 39.7702C111.608 38.7937 112.188 37.9992 113.346 37.3868V37.2874C113.029 37.0528 112.752 36.7676 112.527 36.4434C112.312 36.0959 112.204 35.6653 112.204 35.1523C112.204 34.7219 112.328 34.2998 112.576 33.8862C112.841 33.4723 113.181 33.1165 113.595 32.8186V32.7192C113.148 32.4213 112.75 31.9992 112.403 31.4529C112.072 30.8902 111.906 30.2529 111.906 29.5413C111.906 28.515 112.155 27.671 112.651 27.0089C113.164 26.3301 113.826 25.8337 114.637 25.5192C115.448 25.1883 116.309 25.0226 117.219 25.0226C117.948 25.0226 118.61 25.1219 119.206 25.3207H123.823V28.3992H122.036C122.086 28.5483 122.127 28.7386 122.16 28.9702C122.21 29.2019 122.234 29.4419 122.234 29.6902C122.234 30.6668 122.011 31.4613 121.564 32.0737C121.117 32.6695 120.513 33.1083 119.752 33.3895C118.99 33.671 118.146 33.8116 117.219 33.8116C116.806 33.8116 116.342 33.7537 115.829 33.6377C115.63 33.8198 115.531 34.0598 115.531 34.3577C115.531 34.6226 115.663 34.8129 115.928 34.9289C116.21 35.0447 116.656 35.1026 117.269 35.1026H119.131C120.687 35.1026 121.887 35.3592 122.731 35.8723C123.592 36.3689 124.022 37.188 124.022 38.3302C124.022 39.2241 123.724 40.0102 123.128 40.6889C122.549 41.3674 121.721 41.8971 120.646 42.2777C119.57 42.6586 118.295 42.8489 116.822 42.8489ZM117.219 31.2792C117.616 31.2792 117.939 31.1386 118.188 30.8571C118.436 30.5759 118.56 30.1371 118.56 29.5413C118.56 28.9619 118.436 28.5398 118.188 28.275C117.939 27.9937 117.616 27.8531 117.219 27.8531C116.822 27.8531 116.499 27.9937 116.251 28.275C116.003 28.5398 115.879 28.9619 115.879 29.5413C115.879 30.1371 116.003 30.5759 116.251 30.8571C116.499 31.1386 116.822 31.2792 117.219 31.2792ZM117.517 40.2171C118.212 40.2171 118.792 40.1095 119.255 39.8944C119.719 39.6956 119.95 39.4226 119.95 39.075C119.95 38.7441 119.801 38.5371 119.503 38.4544C119.222 38.3716 118.816 38.3302 118.287 38.3302H117.319C116.822 38.3302 116.441 38.3137 116.176 38.2805C115.928 38.2641 115.713 38.231 115.531 38.1813C115.233 38.4792 115.084 38.7771 115.084 39.075C115.084 39.4723 115.308 39.7619 115.755 39.9441C116.218 40.1262 116.806 40.2171 117.517 40.2171ZM125.857 37.7344V25.3207H130.127V37.7344H125.857ZM127.992 23.7813C127.297 23.7813 126.734 23.591 126.304 23.2104C125.873 22.8131 125.658 22.2916 125.658 21.6461C125.658 21.0007 125.873 20.4874 126.304 20.1068C126.734 19.7095 127.297 19.511 127.992 19.511C128.687 19.511 129.25 19.7095 129.68 20.1068C130.111 20.4874 130.326 21.0007 130.326 21.6461C130.326 22.2916 130.111 22.8131 129.68 23.2104C129.25 23.591 128.687 23.7813 127.992 23.7813ZM133.009 37.7344V25.3207H136.485L136.783 26.8101H136.882C137.379 26.3301 137.942 25.9165 138.571 25.5689C139.216 25.2047 139.961 25.0226 140.805 25.0226C142.179 25.0226 143.164 25.4862 143.76 26.4131C144.372 27.3234 144.678 28.5483 144.678 30.0874V37.7344H140.408V30.6337C140.408 29.8392 140.308 29.3095 140.11 29.0447C139.911 28.7798 139.597 28.6474 139.166 28.6474C138.769 28.6474 138.438 28.7302 138.173 28.8959C137.908 29.0613 137.611 29.2931 137.28 29.591V37.7344H133.009ZM151.978 42.8489C151.035 42.8489 150.166 42.7413 149.371 42.5262C148.577 42.3274 147.94 42.0047 147.46 41.5577C146.996 41.111 146.765 40.515 146.765 39.7702C146.765 38.7937 147.344 37.9992 148.502 37.3868V37.2874C148.185 37.0528 147.908 36.7676 147.683 36.4434C147.468 36.0959 147.36 35.6653 147.36 35.1523C147.36 34.7219 147.485 34.2998 147.733 33.8862C147.998 33.4723 148.337 33.1165 148.751 32.8186V32.7192C148.304 32.4213 147.906 31.9992 147.559 31.4529C147.228 30.8902 147.062 30.2529 147.062 29.5413C147.062 28.515 147.311 27.671 147.807 27.0089C148.32 26.3301 148.982 25.8337 149.793 25.5192C150.605 25.1883 151.465 25.0226 152.375 25.0226C153.104 25.0226 153.766 25.1219 154.362 25.3207H158.979V28.3992H157.192C157.242 28.5483 157.283 28.7386 157.316 28.9702C157.366 29.2019 157.391 29.4419 157.391 29.6902C157.391 30.6668 157.167 31.4613 156.72 32.0737C156.273 32.6695 155.669 33.1083 154.908 33.3895C154.146 33.671 153.302 33.8116 152.375 33.8116C151.962 33.8116 151.498 33.7537 150.985 33.6377C150.786 33.8198 150.687 34.0598 150.687 34.3577C150.687 34.6226 150.82 34.8129 151.085 34.9289C151.366 35.0447 151.813 35.1026 152.425 35.1026H154.287C155.843 35.1026 157.043 35.3592 157.887 35.8723C158.748 36.3689 159.178 37.188 159.178 38.3302C159.178 39.2241 158.88 40.0102 158.284 40.6889C157.705 41.3674 156.878 41.8971 155.802 42.2777C154.726 42.6586 153.451 42.8489 151.978 42.8489ZM152.375 31.2792C152.773 31.2792 153.095 31.1386 153.344 30.8571C153.592 30.5759 153.716 30.1371 153.716 29.5413C153.716 28.9619 153.592 28.5398 153.344 28.275C153.095 27.9937 152.773 27.8531 152.375 27.8531C151.978 27.8531 151.655 27.9937 151.407 28.275C151.159 28.5398 151.035 28.9619 151.035 29.5413C151.035 30.1371 151.159 30.5759 151.407 30.8571C151.655 31.1386 151.978 31.2792 152.375 31.2792ZM152.673 40.2171C153.368 40.2171 153.948 40.1095 154.411 39.8944C154.875 39.6956 155.106 39.4226 155.106 39.075C155.106 38.7441 154.958 38.5371 154.66 38.4544C154.378 38.3716 153.973 38.3302 153.443 38.3302H152.475C151.978 38.3302 151.598 38.3137 151.333 38.2805C151.085 38.2641 150.869 38.231 150.687 38.1813C150.389 38.4792 150.24 38.7771 150.24 39.075C150.24 39.4723 150.464 39.7619 150.911 39.9441C151.374 40.1262 151.962 40.2171 152.673 40.2171ZM166.331 37.7344V21.5965H176.858V25.1716H170.601V28.2501H175.964V31.8253H170.601V37.7344H166.331ZM181.527 38.0323C180.75 38.0323 180.079 37.8586 179.517 37.511C178.979 37.1566 178.543 36.6691 178.25 36.0959C177.952 35.5165 177.803 34.8874 177.803 34.2089C177.803 32.9177 178.333 31.9083 179.392 31.1798C180.452 30.435 182.173 29.9386 184.557 29.6902C184.457 28.8295 183.878 28.3992 182.819 28.3992C182.372 28.3992 181.9 28.4901 181.403 28.6723C180.907 28.8377 180.336 29.0944 179.69 29.4419L178.201 26.6613C179.078 26.1316 179.963 25.7262 180.857 25.4447C181.766 25.1637 182.712 25.0214 183.663 25.0226C185.285 25.0226 186.551 25.4862 187.461 26.4131C188.372 27.3234 188.827 28.7965 188.827 30.8323V37.7344H185.351L185.053 36.5426H184.954C184.457 36.9895 183.927 37.3537 183.365 37.635C182.819 37.8998 182.206 38.0323 181.527 38.0323ZM183.017 34.755C183.365 34.755 183.654 34.6805 183.886 34.5316C184.118 34.3662 184.341 34.1592 184.557 33.911V32.2226C183.547 32.3716 182.843 32.595 182.446 32.8929C182.066 33.191 181.875 33.5137 181.875 33.8613C181.875 34.4571 182.256 34.755 183.017 34.755ZM197.222 38.0323C196.047 38.0323 194.987 37.7756 194.044 37.2626C193.1 36.7495 192.347 36.0129 191.785 35.0529C191.238 34.0765 190.965 32.9013 190.965 31.5274C190.965 30.1537 191.272 28.9868 191.884 28.0268C192.513 27.0502 193.332 26.3055 194.342 25.7923C195.351 25.2792 196.444 25.0226 197.619 25.0226C198.364 25.0226 199.034 25.1386 199.63 25.3702C200.243 25.6019 200.78 25.9165 201.244 26.3137L199.258 29.0447C198.993 28.8131 198.753 28.6559 198.538 28.5731C198.324 28.4904 198.097 28.4484 197.867 28.4489C197.073 28.4489 196.452 28.7302 196.005 29.2931C195.558 29.8392 195.335 30.5841 195.335 31.5274C195.335 32.471 195.567 33.2241 196.03 33.7868C196.493 34.3329 197.056 34.6062 197.718 34.6062C198.066 34.6062 198.405 34.5316 198.736 34.3826C199.076 34.222 199.4 34.0308 199.705 33.8116L201.343 36.5923C200.731 37.1386 200.052 37.5192 199.307 37.7344C198.563 37.9329 197.867 38.0323 197.222 38.0323ZM208.33 38.0323C207.121 38.0323 206.029 37.7756 205.053 37.2626C204.093 36.7495 203.331 36.0129 202.768 35.0529C202.206 34.0765 201.924 32.9013 201.924 31.5274C201.924 30.1868 202.206 29.0365 202.768 28.0765C203.348 27.0998 204.093 26.3468 205.003 25.8171C205.913 25.2874 206.873 25.0226 207.883 25.0226C209.108 25.0226 210.117 25.2959 210.912 25.8419C211.723 26.3716 212.319 27.0916 212.699 28.0019C213.097 28.9123 213.295 29.9219 213.295 31.031C213.295 31.395 213.271 31.751 213.221 32.0986C213.188 32.4295 213.155 32.6695 213.121 32.8186H206.046C206.244 33.5634 206.6 34.0847 207.113 34.3826C207.626 34.6641 208.231 34.8047 208.926 34.8047C209.72 34.8047 210.564 34.5565 211.458 34.0598L212.848 36.5923C212.186 37.0556 211.441 37.4116 210.614 37.6598C209.786 37.908 209.025 38.0323 208.33 38.0323ZM205.996 30.0377H209.671C209.671 29.5577 209.546 29.1441 209.298 28.7965C209.066 28.4323 208.628 28.2501 207.982 28.2501C207.519 28.2501 207.105 28.391 206.741 28.6723C206.377 28.9537 206.128 29.4089 205.996 30.0377Z" fill="white"/>
<path d="M58.6421 40.0994C58.5162 39.6244 58.3123 39.1737 58.0388 38.7654C58.0974 38.5502 58.1419 38.3318 58.1719 38.1112C58.366 36.7106 57.8806 35.4283 56.9654 34.436C56.4697 33.8941 55.9383 33.5365 55.3756 33.3169C55.745 31.7365 55.932 30.119 55.933 28.496C55.933 27.7549 55.891 27.0288 55.8207 26.3135C55.7839 25.9563 55.7396 25.5998 55.6878 25.2445C55.5265 24.1962 55.2875 23.1613 54.9725 22.1484C54.766 21.483 54.5272 20.828 54.2569 20.1858C53.8517 19.2348 53.3785 18.3141 52.8411 17.4309C52.4883 16.8435 52.1044 16.2754 51.6908 15.7291C51.488 15.4533 51.2769 15.1839 51.057 14.9215C50.4059 14.1301 49.6986 13.3869 48.9399 12.698C48.6882 12.4663 48.4292 12.2427 48.1632 12.0274C47.9014 11.809 47.6337 11.5976 47.3607 11.3934C46.8111 10.9844 46.243 10.6006 45.6584 10.2433C42.4285 8.28163 38.6408 7.15686 34.5924 7.15686C22.8055 7.15686 13.2521 16.7105 13.2521 28.4969C13.2518 30.1404 13.4422 31.7782 13.8195 33.3776C13.3133 33.5974 12.8279 33.9398 12.3781 34.4355C11.4631 35.4272 10.9775 36.705 11.1718 38.1054C11.2011 38.328 11.2456 38.5483 11.3047 38.7649C11.0313 39.1734 10.8275 39.6244 10.7014 40.0994C10.4202 41.1684 10.5127 42.1324 10.8702 42.9769C10.4818 44.081 10.5788 45.2566 11.0849 46.2787C11.4528 47.0252 11.9795 47.6025 12.6284 48.1188C13.4002 48.7322 14.3663 49.2537 15.5319 49.7536C16.9222 50.3466 18.6191 50.9037 19.3909 51.108C21.3845 51.6244 23.296 51.9516 25.2336 51.9673C27.9936 51.993 30.3706 51.3438 32.0726 49.6828C32.9087 49.7852 33.7501 49.8366 34.5924 49.8363C35.4823 49.8344 36.3713 49.7782 37.2544 49.6685C38.9522 51.3401 41.3384 51.9951 44.1087 51.9687C46.0458 51.9534 47.9574 51.6262 49.9458 51.1092C50.7228 50.9048 52.4192 50.3477 53.8102 49.755C54.9758 49.2539 55.9416 48.7326 56.7188 48.12C57.3629 47.6039 57.889 47.0264 58.2572 46.2799C58.7684 45.2578 58.8605 44.0822 58.4771 42.978C58.8312 42.1336 58.9231 41.1675 58.6421 40.0994ZM56.6642 42.9054C57.0558 43.6486 57.0809 44.4883 56.7352 45.2705C56.2112 46.4559 54.9094 47.3894 52.3812 48.3919C50.8093 49.0155 49.3695 49.414 49.3569 49.4177C47.2775 49.957 45.3969 50.2308 43.7689 50.2308C41.0731 50.2308 39.0673 49.4871 37.7951 48.018C35.6438 48.3844 33.447 48.3968 31.2917 48.0548C30.0181 49.4995 28.0233 50.2308 25.3503 50.2308C23.7221 50.2308 21.8417 49.957 19.7624 49.4177C19.7495 49.414 18.3106 49.0155 16.738 48.3919C14.2098 47.3894 12.9078 46.4564 12.384 45.2705C12.0383 44.4883 12.0634 43.6486 12.455 42.9054C12.4913 42.8365 12.53 42.769 12.5715 42.704C12.3367 42.3515 12.1793 41.9531 12.1095 41.5355C12.0397 41.1178 12.0591 40.6898 12.1665 40.2801C12.3221 39.6891 12.6437 39.1973 13.0801 38.8441C12.8699 38.4987 12.732 38.1143 12.6746 37.714C12.549 36.8435 12.8377 35.9742 13.4879 35.2657C13.9939 34.7142 14.7095 34.4107 15.5019 34.4107H15.523C14.9256 32.4961 14.6227 30.5018 14.6246 28.4962C14.6246 17.5575 23.4927 8.6892 34.4326 8.6892C45.3727 8.6892 54.2405 17.5568 54.2405 28.4962C54.2419 30.5072 53.937 32.5066 53.3361 34.4257C53.4317 34.4163 53.5255 34.4114 53.6173 34.4114C54.4095 34.4114 55.1253 34.7147 55.6313 35.2662C56.281 35.9742 56.5705 36.8442 56.4446 37.7144C56.3872 38.1148 56.2494 38.4994 56.0391 38.8448C56.4755 39.1978 56.7971 39.6895 56.9527 40.2808C57.0598 40.6905 57.0793 41.1183 57.0094 41.5362C56.9396 41.9538 56.7823 42.352 56.5477 42.7048C56.5892 42.769 56.6283 42.8365 56.6642 42.9054Z" fill="white"/>
<path d="M56.5477 42.7048C56.7823 42.352 56.9396 41.9538 57.0095 41.5362C57.0793 41.1183 57.0598 40.6905 56.9527 40.2809C56.7971 39.6898 56.4755 39.198 56.0391 38.8448C56.2491 38.4994 56.3872 38.115 56.4446 37.7147C56.5702 36.8442 56.2815 35.9749 55.6313 35.2664C55.1253 34.7149 54.4095 34.4114 53.6173 34.4114C53.5252 34.4114 53.4317 34.4161 53.3361 34.4257C53.9363 32.5066 54.2408 30.5072 54.2389 28.4965C54.2389 17.5579 45.3709 8.68945 34.4319 8.68945C23.4929 8.68945 14.6239 17.557 14.6239 28.4965C14.622 30.502 14.9249 32.4963 15.5223 34.4109H15.5012C14.709 34.4109 13.9934 34.7145 13.4874 35.2659C12.8377 35.974 12.5485 36.8438 12.6741 37.7142C12.7315 38.1145 12.8694 38.4989 13.0796 38.8444C12.6432 39.1976 12.3216 39.6893 12.1663 40.2806C12.059 40.6903 12.0396 41.1183 12.1095 41.5362C12.1794 41.9538 12.3369 42.3523 12.5717 42.7048C12.5298 42.7697 12.4913 42.8372 12.4552 42.9061C12.0638 43.6493 12.0385 44.4891 12.3842 45.2712C12.908 46.4564 14.21 47.3904 16.7382 48.3926C18.3102 49.0163 19.7499 49.4147 19.7626 49.4184C21.842 49.9577 23.7223 50.2317 25.3503 50.2317C28.0236 50.2317 30.0181 49.5005 31.292 48.0555C33.4473 48.3975 35.6441 48.3851 37.7954 48.0188C39.0673 49.4878 41.0734 50.2317 43.7691 50.2317C45.3971 50.2317 47.2777 49.9577 49.3571 49.4184C49.3698 49.4147 50.8088 49.0163 52.3815 48.3926C54.9097 47.3904 56.2116 46.4564 56.7355 45.2712C57.0812 44.4891 57.0561 43.6493 56.6645 42.9061C56.6286 42.8365 56.5892 42.7692 56.5477 42.7048ZM30.3805 45.7938C30.2708 45.9858 30.1534 46.173 30.0282 46.3552C29.6989 46.8373 29.2658 47.2055 28.7633 47.4795C27.8021 48.0033 26.5859 48.1866 25.3501 48.1866C23.3982 48.1866 21.3971 47.7298 20.2754 47.4387C20.2203 47.4244 13.4002 45.498 14.2637 43.8584C14.409 43.5827 14.6483 43.4726 14.9492 43.4726C16.1649 43.4726 18.3786 45.2829 19.3302 45.2829C19.5425 45.2829 19.6925 45.1922 19.7537 44.9716C20.1591 43.5173 13.5913 42.9061 14.1444 40.8005C14.2421 40.4278 14.5067 40.2766 14.8791 40.2766C16.4863 40.2764 20.0938 43.103 20.8482 43.103C20.9061 43.103 20.9476 43.0861 20.9701 43.0505L20.9799 43.0343C21.3338 42.4495 21.1309 42.0244 18.7046 40.5384L18.4716 40.3966C15.8021 38.7806 13.928 37.8084 14.994 36.6483C15.1166 36.5142 15.2902 36.4549 15.5014 36.4549C15.752 36.4549 16.055 36.5388 16.3888 36.6792C17.7988 37.2738 19.753 38.8955 20.5693 39.6028C20.81 39.8123 20.9518 39.9403 20.9518 39.9403C20.9518 39.9403 21.9854 41.0152 22.6105 41.0152C22.7544 41.0152 22.8763 40.9587 22.959 40.8183C23.4024 40.0711 18.8427 36.6159 18.5855 35.1905C18.4114 34.2244 18.7079 33.7352 19.2566 33.7352C19.5172 33.7352 19.8355 33.8461 20.1868 34.069C21.2766 34.7609 23.3809 38.3768 24.1513 39.7833C24.4095 40.2548 24.8504 40.4541 25.2477 40.4541C26.0359 40.4541 26.652 39.6705 25.3198 38.6749C23.3176 37.1766 24.0202 34.7278 24.9758 34.5771C25.0166 34.5708 25.0578 34.5675 25.0988 34.5673C25.9679 34.5673 26.3513 36.0649 26.3513 36.0649C26.3513 36.0649 27.4747 38.8863 29.4048 40.8148C31.1563 42.5653 31.4007 44.002 30.3805 45.7938ZM36.6216 46.1243L36.5216 46.1363L36.3507 46.1559C36.2609 46.1651 36.1712 46.174 36.0809 46.1824L35.9928 46.1904L35.9127 46.1972L35.7985 46.2063C35.7566 46.2094 35.7146 46.2127 35.6727 46.2152L35.547 46.2237L35.5194 46.2253L35.4205 46.2312L35.3785 46.2333L35.2613 46.2391L35.1252 46.2448L35.0014 46.249L34.9189 46.2513H34.8772C34.8514 46.2513 34.8259 46.2527 34.8001 46.253H34.7591C34.7333 46.253 34.7077 46.253 34.682 46.2544L34.5772 46.2555H34.4305C34.3154 46.2555 34.2008 46.2544 34.0862 46.2523L33.9934 46.2502C33.9671 46.2502 33.9406 46.2488 33.9144 46.248L33.8162 46.245L33.6938 46.2403L33.5839 46.2356L33.5553 46.2345L33.4505 46.2288C33.4215 46.2272 33.3924 46.2258 33.3636 46.2239L33.2959 46.2199C33.2108 46.2145 33.1257 46.2084 33.0406 46.2019L32.9516 46.1948L32.8391 46.1852L32.7076 46.173C32.6342 46.1663 32.5609 46.1587 32.4875 46.1505H32.484C33.5551 43.7611 33.0134 41.5296 30.849 39.3668C29.4296 37.9493 28.4851 35.8556 28.2894 35.396C27.8928 34.0355 26.843 32.523 25.1 32.523C24.9526 32.5233 24.8056 32.535 24.6601 32.558C23.8963 32.678 23.2288 33.1177 22.7525 33.7791C22.238 33.139 21.7377 32.6302 21.2853 32.3426C20.6033 31.9104 19.9229 31.691 19.2596 31.691C18.4323 31.691 17.6923 32.0309 17.1767 32.6473L17.1638 32.663L17.1348 32.5409L17.1336 32.5357C17.0355 32.1162 16.9532 31.6929 16.8866 31.2673C16.8866 31.2642 16.8866 31.2614 16.8852 31.2586L16.8706 31.1623C16.8628 31.1102 16.8551 31.058 16.8477 31.0059C16.8416 30.9626 16.8355 30.9192 16.8298 30.8761C16.8242 30.833 16.8181 30.7896 16.813 30.7463C16.8073 30.7027 16.8022 30.6593 16.797 30.6159C16.7921 30.5747 16.7873 30.5334 16.7827 30.4922L16.7814 30.4816C16.7602 30.2913 16.7421 30.1008 16.727 29.91L16.7188 29.7996C16.7164 29.7694 16.7143 29.7389 16.7124 29.7082C16.7124 29.7012 16.7115 29.6939 16.711 29.6873L16.7033 29.565C16.7005 29.5207 16.6984 29.4764 16.696 29.4321C16.6937 29.388 16.6913 29.3437 16.6895 29.2992L16.6848 29.1832L16.6834 29.148L16.6798 29.0407L16.6773 28.9498C16.6773 28.9134 16.6756 28.8769 16.6749 28.8405L16.673 28.7259C16.6726 28.6877 16.673 28.6498 16.6721 28.6116C16.6709 28.5731 16.6721 28.5349 16.6721 28.4965C16.6721 18.6874 24.6247 10.7348 34.4347 10.7348C44.2447 10.7348 52.197 18.6869 52.197 28.4965V28.7259C52.197 28.7641 52.1961 28.8026 52.1952 28.8405C52.1952 28.8724 52.194 28.9036 52.193 28.9355C52.193 28.9638 52.1919 28.992 52.1907 29.0194C52.1907 29.0552 52.1886 29.0909 52.1874 29.1267V29.1298C52.1844 29.2076 52.1811 29.2854 52.1778 29.3632L52.1764 29.389L52.1703 29.5052L52.1647 29.5973C52.1516 29.8155 52.1345 30.0338 52.1136 30.2515V30.2545C52.1098 30.2953 52.1056 30.3363 52.1012 30.3771C52.0909 30.472 52.0803 30.567 52.0698 30.6619L52.0578 30.7573L52.043 30.8693C52.0379 30.9103 52.0323 30.9511 52.0264 30.9919C52.0201 31.0376 52.0133 31.083 52.0067 31.1285L51.9903 31.2359L51.9711 31.3577C51.9645 31.3983 51.958 31.4386 51.9502 31.4791C51.9423 31.5195 51.9362 31.5598 51.9291 31.6003C51.9151 31.6809 51.9005 31.7613 51.8848 31.8417C51.8537 32.0018 51.8211 32.1614 51.7866 32.3208C51.778 32.3604 51.7691 32.4002 51.7599 32.4398C51.26 31.954 50.5981 31.6894 49.8678 31.6894C49.2052 31.6894 48.5241 31.9085 47.8423 32.3409C47.3898 32.6283 46.8898 33.1373 46.3749 33.7774C45.898 33.1158 45.2305 32.6763 44.4676 32.5561C44.322 32.5334 44.1748 32.5216 44.0274 32.5214C42.2839 32.5214 41.2348 34.0338 40.838 35.3944C40.6414 35.854 39.6969 37.9474 38.2759 39.3673C36.113 41.523 35.5672 43.7447 36.6216 46.1243ZM54.9591 41.3412L54.9521 41.362C54.9472 41.3754 54.9423 41.3887 54.9369 41.4019C54.9284 41.4218 54.9195 41.4413 54.9102 41.4607C54.8874 41.5071 54.8616 41.5521 54.8333 41.5952C54.7941 41.6536 54.7513 41.7094 54.7046 41.7619C54.6938 41.7741 54.6835 41.786 54.6713 41.798C54.6549 41.816 54.6373 41.8336 54.62 41.8512C54.3043 42.1641 53.8234 42.438 53.2796 42.6898C53.218 42.7177 53.1556 42.7455 53.0923 42.7734L53.0295 42.8013C52.9876 42.8198 52.9459 42.8384 52.9018 42.8564C52.8589 42.8747 52.8158 42.8927 52.7727 42.9105L52.6419 42.9647C52.336 43.0905 52.0227 43.2103 51.7168 43.3289L51.5862 43.3795L51.4569 43.4302C51.3711 43.4637 51.2863 43.4972 51.2026 43.5307L51.0781 43.5809L50.956 43.631L50.8958 43.6561C50.8559 43.673 50.8166 43.6894 50.7777 43.7062C49.8781 44.092 49.2312 44.4846 49.3672 44.9719C49.3709 44.9857 49.3752 44.9988 49.3798 45.0115C49.392 45.0476 49.4087 45.0818 49.4293 45.1137C49.4415 45.1329 49.4555 45.1509 49.4712 45.1673C49.6311 45.3333 49.922 45.307 50.2888 45.1753C50.3185 45.1645 50.349 45.153 50.3797 45.1409C50.4008 45.1329 50.4216 45.1245 50.4427 45.116L50.4744 45.1027C50.5583 45.067 50.6471 45.0274 50.738 44.9841C50.7608 44.9735 50.7838 44.9632 50.8067 44.951C51.2551 44.7319 51.7634 44.4363 52.2678 44.1675C52.3452 44.1255 52.4227 44.0855 52.4998 44.0456C52.6259 43.9802 52.7532 43.9172 52.8816 43.857C53.3593 43.6324 53.8081 43.473 54.1693 43.473C54.3385 43.473 54.4883 43.5077 54.6127 43.5874L54.6336 43.6013C54.6966 43.6458 54.7515 43.7004 54.7962 43.7632C54.8066 43.778 54.8173 43.7932 54.8265 43.8089C54.8363 43.8251 54.8457 43.8417 54.8546 43.8586C55.033 44.197 54.8837 44.5479 54.5345 44.8917C54.1991 45.2217 53.6773 45.5454 53.0841 45.8452C53.0403 45.8674 52.996 45.8897 52.9515 45.9113C51.1864 46.778 48.8755 47.4307 48.8431 47.4389C48.2272 47.5985 47.3464 47.8083 46.3543 47.9651L46.2073 47.9878L46.1834 47.9913C45.9584 48.0251 45.7327 48.0548 45.5066 48.0806L45.4857 48.0827C45.0744 48.1296 44.6525 48.1636 44.2299 48.1779H44.2236C44.0717 48.1835 43.9201 48.1861 43.7682 48.1861H43.5934C43.3618 48.1828 43.1305 48.1725 42.8996 48.1547C42.8942 48.1547 42.8886 48.1547 42.883 48.1535C42.8005 48.1472 42.7177 48.1395 42.6355 48.1303C42.4939 48.1151 42.3526 48.0963 42.2117 48.0743C42.1569 48.0652 42.0983 48.0555 42.0418 48.0457C42.016 48.041 41.9905 48.0363 41.9649 48.0312L41.9588 48.03C41.8775 48.0145 41.7966 47.9974 41.716 47.9789C41.6694 47.9684 41.6225 47.9578 41.5763 47.9454L41.5487 47.9381C41.5257 47.9325 41.5032 47.9264 41.4807 47.9203L41.4683 47.917L41.3959 47.8962C41.3696 47.8887 41.3436 47.8809 41.3173 47.8732L41.308 47.8704L41.2398 47.8495C41.214 47.8416 41.1884 47.8331 41.1629 47.8249C41.1418 47.8179 41.1209 47.8106 41.0998 47.8038L41.0537 47.7877C41.0091 47.7722 40.9651 47.7558 40.921 47.7389L40.8793 47.7227L40.8448 47.7089C40.7785 47.6822 40.7124 47.6543 40.647 47.625L40.6034 47.6041L40.5962 47.6009C40.5807 47.5936 40.5655 47.5863 40.55 47.5798C40.5198 47.5652 40.4898 47.5502 40.46 47.535L40.4511 47.5305L40.408 47.5078C40.3313 47.468 40.2561 47.4253 40.1825 47.3798L40.1422 47.3552C40.1213 47.3426 40.1023 47.3297 40.0824 47.3168L40.0299 47.2819C40.0109 47.2692 39.992 47.2563 39.9734 47.243L39.9397 47.2191C39.9041 47.1935 39.8691 47.1675 39.8347 47.1405C39.8164 47.1265 39.7984 47.112 39.7803 47.0986C39.7402 47.0665 39.7011 47.0334 39.6624 46.9995L39.6608 46.998C39.6231 46.9655 39.5863 46.9317 39.5504 46.8973L39.5485 46.8949C39.5298 46.8771 39.5115 46.8593 39.4932 46.8408C39.4752 46.8223 39.4569 46.804 39.4393 46.7855C39.4215 46.7667 39.4037 46.7477 39.3863 46.7283C39.3695 46.71 39.353 46.6915 39.3366 46.6727L39.331 46.6664C39.2464 46.5682 39.1672 46.4653 39.0938 46.3582L39.0648 46.3153C39.0456 46.287 39.0266 46.2584 39.0078 46.2298L38.9525 46.1447C38.9253 46.1032 38.8988 46.0613 38.873 46.0191C38.8545 45.9891 38.8363 45.9591 38.8182 45.9288C38.803 45.903 38.7877 45.8775 38.7732 45.8522C38.765 45.8384 38.7573 45.8243 38.7495 45.8102C38.7418 45.7957 38.7327 45.7809 38.7245 45.7662L38.7113 45.743C38.7069 45.7352 38.7055 45.7329 38.7031 45.7277C38.6872 45.6998 38.6717 45.6715 38.6567 45.6427C38.6499 45.6302 38.6431 45.6176 38.6359 45.6052L38.6148 45.5648L38.5939 45.5248L38.5536 45.4434C38.547 45.4301 38.5407 45.4167 38.5344 45.4034C38.5206 45.3745 38.5074 45.3462 38.4943 45.3178C38.4891 45.3063 38.4838 45.2948 38.4791 45.2834C38.461 45.2442 38.4439 45.2046 38.4277 45.1645C38.4167 45.138 38.4066 45.1118 38.3959 45.0855C38.3656 45.0082 38.3373 44.9302 38.3113 44.8512C38.3035 44.8277 38.2958 44.8045 38.289 44.7811C38.2721 44.7279 38.2569 44.6742 38.2433 44.6201C38.2266 44.557 38.2119 44.4933 38.1995 44.4293C38.1915 44.3916 38.1845 44.3536 38.1786 44.3154C38.1723 44.2777 38.1669 44.2399 38.1624 44.2024C38.1528 44.1277 38.146 44.0527 38.142 43.9774C38.142 43.965 38.1409 43.9523 38.1406 43.9399C38.1395 43.9151 38.1388 43.8902 38.1385 43.8654C38.1254 42.8641 38.6323 41.9011 39.7159 40.818C41.6457 38.8898 42.7693 36.0682 42.7693 36.0682C42.7693 36.0682 42.7995 35.9498 42.8626 35.7797C42.8837 35.7232 42.9057 35.667 42.9289 35.6114C42.9554 35.5486 42.9838 35.4865 43.0142 35.4255L43.0231 35.4077C43.0623 35.3299 43.1047 35.2542 43.1509 35.1804C43.1614 35.1633 43.1717 35.1462 43.1839 35.1293C43.2181 35.0782 43.2545 35.0288 43.2927 34.9807C43.3222 34.9439 43.3536 34.9083 43.3866 34.8745C43.4987 34.7592 43.6264 34.665 43.771 34.6146L43.7893 34.6088C43.8015 34.6048 43.8134 34.601 43.8259 34.5975C43.8404 34.5938 43.8549 34.5902 43.8695 34.5872L43.876 34.586C43.9067 34.5799 43.9374 34.5757 43.9686 34.5736H43.9714C43.9876 34.5736 44.0038 34.572 44.0204 34.572C44.0619 34.5722 44.1031 34.5755 44.1441 34.5818C44.318 34.6092 44.4837 34.7128 44.6262 34.8727L44.6455 34.8952C44.6919 34.9495 44.7341 35.0077 44.7716 35.0686C44.7997 35.1138 44.8262 35.1614 44.8513 35.2113C44.8613 35.2324 44.8709 35.2516 44.8805 35.2723C44.8852 35.2828 44.8899 35.2931 44.8944 35.3039C44.9037 35.3248 44.9124 35.3459 44.9211 35.3679C44.9701 35.4935 45.008 35.6231 45.0348 35.7553C45.0631 35.898 45.0795 36.0429 45.0842 36.1884C45.0859 36.2524 45.0859 36.3171 45.0842 36.3827C45.083 36.4076 45.0819 36.4327 45.08 36.4577C45.0608 36.7364 45.0001 37.0106 44.8998 37.2715C44.8897 37.2973 44.8787 37.3235 44.8684 37.3498C44.818 37.4702 44.7594 37.587 44.6933 37.6995C44.6555 37.7637 44.6148 37.8274 44.5712 37.8907L44.5445 37.9287C44.4411 38.073 44.3258 38.2085 44.1997 38.3337C44.0755 38.4581 43.9423 38.5732 43.8015 38.6784C43.6602 38.7827 43.5277 38.8985 43.4054 39.0244C43.0531 39.3942 42.9711 39.7202 43.0503 39.9675C43.0597 39.9954 43.0707 40.0228 43.0834 40.0493C43.1127 40.1067 43.1506 40.1595 43.1961 40.2054L43.2085 40.2178C43.2214 40.2302 43.235 40.2422 43.2488 40.2537L43.2629 40.2652C43.2971 40.2914 43.3332 40.3148 43.3709 40.3352C43.3817 40.3411 43.3918 40.347 43.4042 40.3526C43.456 40.3784 43.5102 40.399 43.5659 40.4147L43.5814 40.4187L43.6023 40.4243L43.6205 40.4288L43.64 40.433L43.6595 40.437L43.678 40.44C43.6918 40.4426 43.7059 40.4447 43.7197 40.4466L43.7333 40.4484L43.7574 40.451L43.7724 40.4524L43.7973 40.4543H43.8116L43.8373 40.4555H43.9187L43.9419 40.4543L43.9686 40.4527L44.0012 40.4496L44.0316 40.4459C44.0384 40.4459 44.0455 40.444 44.0525 40.4428C44.1598 40.4271 44.2644 40.3969 44.3633 40.3528C44.3844 40.3439 44.4052 40.3341 44.4245 40.3238C44.4657 40.3031 44.5058 40.2799 44.5442 40.2544C44.5979 40.2192 44.6485 40.1796 44.6961 40.1365L44.7291 40.1051C44.7343 40.0999 44.7397 40.095 44.7446 40.0896C44.777 40.0573 44.8074 40.023 44.8358 39.9872C44.8859 39.9239 44.9305 39.8566 44.9691 39.7859C45.4278 38.952 45.9085 38.1302 46.4108 37.3219L46.4797 37.2115L46.5493 37.1009C46.5842 37.0451 46.6191 36.9898 46.6541 36.9352L46.6895 36.8801L46.76 36.7702C46.8547 36.6237 46.9496 36.4788 47.0452 36.3354L47.1167 36.2285C47.2602 36.0162 47.4034 35.8095 47.5449 35.6128L47.6157 35.5158C47.7697 35.303 47.9302 35.0951 48.0969 34.8921L48.1632 34.8129C48.174 34.7995 48.1841 34.7866 48.196 34.7737L48.2609 34.6985C48.2717 34.6861 48.282 34.6739 48.2933 34.662L48.3561 34.5909L48.3877 34.5567C48.4182 34.5237 48.4491 34.4911 48.4805 34.4588C48.5016 34.4379 48.5211 34.4168 48.5415 34.3973C48.6603 34.2757 48.7913 34.1667 48.9327 34.0723L48.9652 34.0514L48.9983 34.0303C49.0194 34.0172 49.0407 34.0045 49.0625 33.9926C49.6166 33.6783 50.0755 33.6551 50.3394 33.919C50.4995 34.0791 50.5878 34.3441 50.5831 34.7128C50.5831 34.7292 50.5831 34.7454 50.5817 34.7623V34.7805C50.5817 34.7972 50.5803 34.8143 50.5791 34.8314C50.5791 34.8523 50.5766 34.8734 50.5745 34.8942C50.5723 34.9153 50.5714 34.9313 50.5693 34.9498C50.5693 34.9552 50.5681 34.9605 50.5674 34.9659C50.5658 34.9823 50.5637 34.999 50.5616 35.0154C50.5616 35.0205 50.5616 35.0255 50.5595 35.0306C50.5571 35.0529 50.5538 35.0752 50.5498 35.0972C50.5473 35.1176 50.544 35.138 50.54 35.1584C50.5384 35.1701 50.536 35.1816 50.5341 35.1933C50.528 35.2266 50.5201 35.2596 50.5105 35.292C50.4924 35.3524 50.4704 35.4117 50.4444 35.4694C50.4331 35.4945 50.4212 35.5195 50.409 35.5441C50.3837 35.595 50.3551 35.647 50.3237 35.7009C50.308 35.7274 50.2918 35.7548 50.2745 35.7823L50.2482 35.824C50.2215 35.8659 50.1936 35.9084 50.1645 35.9513C50.1355 35.9941 50.1043 36.038 50.0708 36.0823C50.0274 36.1413 49.9817 36.2016 49.9334 36.2625L49.8969 36.3087C49.7935 36.4373 49.6876 36.5639 49.5793 36.6884L49.4933 36.7856L49.4495 36.8348C49.3897 36.9016 49.3297 36.968 49.2692 37.0338L49.2228 37.084C49.1921 37.1173 49.16 37.151 49.1293 37.1845C49.0979 37.2185 49.066 37.2523 49.0341 37.286L48.9376 37.3877L48.8398 37.4897C48.8073 37.5237 48.7745 37.5581 48.7414 37.5921L48.5424 37.7972C47.592 38.772 46.5905 39.7434 46.2516 40.3491C46.2291 40.3887 46.2088 40.4292 46.1902 40.4707C46.1422 40.5809 46.122 40.6751 46.1356 40.7512C46.1401 40.7763 46.149 40.8005 46.1619 40.8223C46.1811 40.8553 46.2043 40.8858 46.231 40.913C46.2434 40.9252 46.2563 40.9366 46.2704 40.947C46.34 40.9966 46.4244 41.0222 46.5099 41.0196H46.5366L46.5641 41.0177L46.5917 41.0145L46.6145 41.0112C46.6175 41.0109 46.6205 41.0102 46.6236 41.0095L46.6445 41.0055L46.6501 41.0041L46.673 40.9992L46.6813 40.9971L46.7059 40.9908L46.7352 40.9821C46.7544 40.9762 46.7736 40.9697 46.7933 40.9624C46.8357 40.9474 46.8772 40.9301 46.9177 40.9106C46.928 40.9057 46.9386 40.901 46.9487 40.8956L46.9798 40.8802C47.0206 40.8595 47.0612 40.8373 47.102 40.8131C47.1345 40.7939 47.1669 40.7742 47.1992 40.7534L47.2306 40.7325C47.2409 40.7259 47.2515 40.7191 47.2618 40.7114L47.293 40.6905L47.3094 40.6791L47.3544 40.6477C47.3963 40.6186 47.4355 40.5888 47.4753 40.5586L47.4788 40.556L47.5416 40.5073C47.6277 40.4393 47.7095 40.3709 47.7833 40.3064L47.8325 40.263L47.8372 40.2588L47.8627 40.2361C47.9232 40.182 47.9771 40.1313 48.0221 40.0894L48.0404 40.0716L48.0847 40.0296L48.1112 40.0038L48.1203 39.9945L48.1229 39.9919C48.1454 39.9694 48.1454 39.9694 48.1679 39.9466L48.1698 39.9448L48.1782 39.9373C48.1808 39.9345 48.1843 39.9316 48.1883 39.9281L48.1916 39.9251L48.2005 39.9171L48.248 39.8752L48.2748 39.851C48.2879 39.8398 48.3022 39.8269 48.3167 39.813L48.3488 39.7849C48.3545 39.7802 48.3601 39.7748 48.3659 39.7697L48.3995 39.7404L48.4489 39.6973L48.4749 39.6745C48.5769 39.5857 48.7011 39.4786 48.8434 39.3579L48.9017 39.3087L48.9983 39.2278L49.0967 39.1453C49.2256 39.0384 49.3644 38.9248 49.5111 38.8066L49.6074 38.7293C49.6895 38.6641 49.7738 38.5973 49.8591 38.5303C49.8934 38.5034 49.9283 38.4764 49.9639 38.4497C50.0513 38.3822 50.1392 38.3149 50.2273 38.2486C50.4284 38.0967 50.6359 37.9446 50.8456 37.7963L50.9359 37.7337C50.9987 37.6901 51.0615 37.6467 51.1245 37.6043L51.1815 37.5656C51.2942 37.4897 51.4079 37.4154 51.5225 37.3427L51.5795 37.3069L51.6359 37.2717C51.6924 37.2368 51.7489 37.2021 51.8047 37.1686L51.8607 37.1353L51.973 37.0699C52.0098 37.0486 52.0463 37.0277 52.0829 37.0071L52.1049 36.9947L52.1921 36.9471C52.2282 36.9274 52.2645 36.9084 52.3004 36.8899L52.3543 36.8623L52.4063 36.8358C52.5254 36.776 52.6466 36.7207 52.7698 36.6701C52.7867 36.663 52.8034 36.6563 52.82 36.649C52.853 36.6352 52.8859 36.6225 52.9184 36.6112C52.951 36.6002 52.9831 36.5887 53.0148 36.5775C53.0436 36.5679 53.0715 36.559 53.0987 36.5505L53.1078 36.5477C53.1223 36.5433 53.1369 36.5391 53.1514 36.5353L53.1556 36.5341C53.1852 36.5257 53.2147 36.518 53.2445 36.5109H53.2468C53.2906 36.5004 53.3333 36.4915 53.375 36.4845C53.3893 36.4821 53.4034 36.4798 53.417 36.4779C53.4575 36.4718 53.4983 36.4676 53.5391 36.4648C53.5648 36.4629 53.5909 36.4622 53.6166 36.4622H53.6363C53.6626 36.4622 53.6879 36.4638 53.713 36.4664C53.7245 36.4664 53.7359 36.4685 53.7472 36.4702H53.7519C53.7631 36.4713 53.7746 36.4732 53.7856 36.4755C53.7966 36.4779 53.8079 36.4795 53.8187 36.4821H53.8224C53.8332 36.4845 53.8433 36.4875 53.8545 36.4905C53.9441 36.5147 54.0263 36.5602 54.0945 36.623L54.1006 36.6291L54.1126 36.6408L54.1243 36.6532C54.2183 36.7521 54.2961 36.8653 54.3547 36.9886L54.3638 37.0095C54.3837 37.0563 54.3995 37.1048 54.4105 37.1545C54.4409 37.293 54.4327 37.4374 54.3866 37.5715C54.3666 37.6298 54.3423 37.6866 54.3134 37.7409L54.2942 37.7756C54.2211 37.8982 54.1348 38.0123 54.0366 38.1159L54.0155 38.1382C53.9694 38.1872 53.9213 38.2348 53.8719 38.2805C53.8562 38.2952 53.84 38.31 53.8236 38.3248L53.7988 38.3473C53.7472 38.393 53.6945 38.4375 53.641 38.4811C53.6316 38.4886 53.622 38.4961 53.6129 38.5041C53.5756 38.5341 53.5372 38.5645 53.4973 38.595C53.36 38.7 53.2201 38.8012 53.0776 38.899C52.9937 38.9564 52.907 39.0143 52.8174 39.0731C52.6505 39.1826 52.4825 39.2897 52.3128 39.3947C52.2638 39.4249 52.2146 39.4556 52.1645 39.4861C51.7034 39.7697 51.1923 40.073 50.6471 40.4027L50.506 40.4885C50.3516 40.5827 50.2058 40.6727 50.0687 40.7583L49.9995 40.8019L49.8688 40.8858C49.817 40.9186 49.7666 40.9509 49.7176 40.9828C49.6805 41.0065 49.6445 41.0299 49.6091 41.0531L49.5392 41.0991C49.5052 41.1213 49.4715 41.1436 49.4377 41.1663L49.4049 41.1872C49.3702 41.2104 49.3365 41.2331 49.3037 41.2556L49.25 41.2922L49.187 41.336L49.1288 41.3766C49.037 41.441 48.9463 41.5069 48.8563 41.5739L48.8248 41.5978C48.7895 41.6245 48.7552 41.6513 48.7222 41.6773L48.6791 41.7117C48.6064 41.7701 48.5405 41.8261 48.481 41.8795L48.452 41.9063C48.4353 41.9215 48.4189 41.9367 48.4034 41.9517C48.3924 41.962 48.3823 41.9726 48.3713 41.9829L48.3561 41.9979C48.3226 42.0314 48.29 42.0659 48.2584 42.1013L48.2429 42.1191C48.2084 42.1589 48.1784 42.1971 48.152 42.2344L48.1402 42.2513C48.1098 42.2958 48.0828 42.3429 48.0598 42.3919L48.0519 42.409L48.047 42.4209L48.043 42.4312L48.0376 42.4455C48.0359 42.4505 48.0327 42.4591 48.0308 42.4666C48.0212 42.4945 48.0141 42.5234 48.0095 42.5527L48.0071 42.5684L48.0052 42.5827L48.0041 42.5965V42.6701C48.0041 42.6762 48.0041 42.6825 48.0055 42.6888C48.0057 42.6926 48.0062 42.6963 48.0066 42.7001C48.0066 42.7062 48.0083 42.7123 48.009 42.7186L48.0134 42.7444V42.7455C48.0151 42.7537 48.0167 42.762 48.0188 42.7702C48.0209 42.7784 48.023 42.7875 48.0256 42.7962C48.0331 42.8227 48.0423 42.8489 48.0528 42.8745C48.0528 42.8763 48.0545 42.8784 48.0552 42.8803C48.058 42.8866 48.0605 42.8932 48.0636 42.8995C48.0751 42.9262 48.088 42.9523 48.102 42.9778L48.1168 43.0043L48.1323 43.031L48.1484 43.0577C48.1512 43.0622 48.1543 43.0662 48.1578 43.0702L48.1632 43.0758L48.1688 43.0809L48.1752 43.0859C48.1794 43.0889 48.1838 43.0915 48.1885 43.0941C48.1932 43.0962 48.1984 43.0985 48.2035 43.1004C48.2091 43.1023 48.2148 43.1039 48.2204 43.1053C48.3556 43.1358 48.6336 43.0237 49.0027 42.8287L49.0691 42.7936L49.1813 42.7324L49.2364 42.702C49.2753 42.6809 49.3154 42.6574 49.3559 42.6342L49.4302 42.5923C49.9184 42.3113 50.5018 41.9501 51.1046 41.5976C51.1609 41.5645 51.2176 41.5317 51.2743 41.4989L51.3882 41.4263C51.4452 41.3934 51.5019 41.3611 51.5588 41.3292C51.8012 41.1914 52.0468 41.059 52.295 40.9322L52.4063 40.8757C52.4804 40.8391 52.5538 40.8035 52.6262 40.7688C52.7666 40.7023 52.9084 40.6392 53.0516 40.5795L53.1301 40.5476L53.1397 40.5438C53.5555 40.3791 53.9326 40.2771 54.2377 40.2771C54.3038 40.2766 54.3697 40.282 54.4348 40.2933H54.4367C54.4578 40.297 54.4768 40.3013 54.496 40.3062H54.4995C54.5277 40.313 54.5553 40.3216 54.582 40.3324C54.6034 40.3402 54.624 40.3493 54.6439 40.3601C54.7313 40.4044 54.8061 40.4698 54.8619 40.5504C54.8666 40.5572 54.871 40.5642 54.8752 40.5715C54.8959 40.6029 54.9137 40.6359 54.9282 40.6706C54.9369 40.6905 54.9448 40.7112 54.9523 40.7334C54.9598 40.7559 54.9664 40.7775 54.9732 40.8007C55.0229 40.9784 55.018 41.1663 54.9591 41.3412Z" fill="#FF9D00"/>
<path fill-rule="evenodd" clip-rule="evenodd" d="M52.1942 28.6113V28.4965C52.1942 18.687 44.2447 10.7349 34.4345 10.7349C24.6247 10.7349 16.6721 18.6874 16.6721 28.4965L16.6719 28.5349C16.6717 28.5605 16.6714 28.5858 16.6719 28.6113C16.673 28.6495 16.6734 28.6878 16.6731 28.726L16.6745 28.8103L16.675 28.8408L16.6761 28.8825C16.6766 28.905 16.6773 28.9273 16.6773 28.9498L16.6796 29.041L16.6834 29.1481L16.6846 29.1832L16.6892 29.2941V29.2992L16.6958 29.4288V29.4321C16.6982 29.4764 16.7005 29.5207 16.7033 29.5648C16.7057 29.6058 16.7082 29.6466 16.711 29.6874L16.7117 29.6946C16.7138 29.7296 16.7162 29.7647 16.7188 29.7996L16.7195 29.8088C16.7218 29.8425 16.7244 29.8765 16.7272 29.91L16.7277 29.9166L16.7324 29.9752C16.7464 30.1442 16.7628 30.3131 16.7816 30.4817L16.7828 30.4922L16.7968 30.616L16.813 30.7463C16.8238 30.833 16.8354 30.9195 16.8477 31.006C16.855 31.0582 16.8626 31.1103 16.8704 31.1623L16.8716 31.1686C16.8891 31.2863 16.908 31.4039 16.9283 31.5211C16.9866 31.8612 17.0551 32.1996 17.1336 32.5357L17.1348 32.5411L17.1423 32.5728C17.1493 32.6028 17.1564 32.6328 17.1639 32.663L17.1767 32.6473C17.6924 32.0309 18.4321 31.691 19.2596 31.691C19.9229 31.691 20.6035 31.9102 21.2853 32.3426C21.7377 32.6299 22.2378 33.139 22.7525 33.7791C23.2288 33.1174 23.8963 32.678 24.6599 32.558C24.8056 32.535 24.9528 32.5233 25.1 32.5231C26.8431 32.5231 27.8928 34.0357 28.2894 35.396C28.4851 35.8559 29.4296 37.9491 30.8537 39.3652C33.0181 41.5278 33.5598 43.7595 32.4887 46.1489H32.4922C32.5653 46.1569 32.6387 46.1644 32.7123 46.1712C32.7561 46.1754 32.7999 46.1796 32.8438 46.1834L32.8592 46.1848C32.8913 46.1878 32.9237 46.1906 32.956 46.193L33.0451 46.2003C33.1299 46.2068 33.215 46.2127 33.3006 46.2183L33.3681 46.2223L33.4217 46.2253L33.4552 46.2272L33.5598 46.2328L33.5884 46.234L33.6985 46.2387L33.8206 46.2434L33.9191 46.2462L33.9355 46.2469C33.9561 46.2476 33.9772 46.2485 33.9981 46.2485L34.0203 46.249C34.1586 46.2523 34.2966 46.2539 34.4349 46.2539H34.5816L34.6866 46.2528C34.7124 46.2513 34.738 46.2513 34.7638 46.2513H34.8045L34.8399 46.2506C34.8538 46.2502 34.8678 46.2497 34.8816 46.2497H34.9236L35.0059 46.2474L35.1296 46.2431L35.266 46.2373C35.3052 46.2356 35.3441 46.2338 35.3832 46.2317L35.4252 46.2293L35.4873 46.2258L35.5241 46.2237L35.5515 46.2221L35.6774 46.2136C35.7193 46.211 35.7613 46.2078 35.8032 46.2045L35.9171 46.1956L35.9975 46.1888L36.0854 46.1808C36.1756 46.1724 36.2656 46.1635 36.3552 46.1541C36.4124 46.1478 36.4691 46.1414 36.526 46.1346L36.6261 46.1227C35.5716 43.7431 36.1175 41.5214 38.2733 39.3673C39.6941 37.9477 40.6386 35.854 40.8355 35.3944C41.2323 34.0338 42.2811 32.5214 44.0246 32.5214C44.172 32.5217 44.3192 32.5331 44.4648 32.5563C45.2277 32.6763 45.8954 33.116 46.3724 33.7774C46.8873 33.1374 47.3872 32.6283 47.8395 32.341C48.5213 31.9085 49.2024 31.6894 49.865 31.6894C50.5953 31.6894 51.2574 31.9542 51.7574 32.4399C51.7848 32.3175 51.8113 32.1952 51.8366 32.0724C51.852 31.9957 51.8673 31.9188 51.8823 31.8417C51.9006 31.7471 51.9179 31.6519 51.9338 31.5567C51.9381 31.531 51.9425 31.5052 51.9474 31.4792C51.9552 31.4386 51.962 31.3985 51.9683 31.3578L51.9709 31.3423L51.9875 31.2361L52.0039 31.1285L52.0041 31.1274C52.0107 31.0824 52.0175 31.0371 52.0236 30.9919C52.0285 30.9577 52.0332 30.9235 52.0377 30.889L52.0405 30.8693L52.055 30.7573L52.067 30.6619C52.0742 30.5991 52.0813 30.5363 52.0881 30.4732C52.0911 30.4481 52.0937 30.4228 52.0963 30.3975L52.0986 30.3771C52.1031 30.3352 52.107 30.2935 52.1108 30.2515L52.1202 30.154C52.1396 29.9379 52.1553 29.7218 52.1675 29.5053V29.5038L52.1738 29.389L52.175 29.3632L52.1797 29.2542C52.1816 29.2132 52.1832 29.1717 52.1846 29.1298V29.1267L52.1858 29.0965C52.187 29.0707 52.1879 29.0449 52.1879 29.0194L52.1884 29.0088C52.1893 28.9849 52.1902 28.9601 52.1902 28.9355L52.1909 28.9144C52.1916 28.8898 52.1924 28.8654 52.1924 28.8408L52.1928 28.8199C52.1935 28.7885 52.1942 28.7574 52.1942 28.726V28.6113ZM30.0291 46.3552C31.4356 44.2922 31.336 42.7439 29.4059 40.815C27.4759 38.8861 26.3525 36.0652 26.3525 36.0652C26.3525 36.0652 25.9332 34.4264 24.977 34.5771C24.0207 34.7276 23.3192 37.1761 25.3213 38.6749C27.3233 40.1738 24.9231 41.19 24.1524 39.7835C23.3816 38.3768 21.2778 34.7611 20.1868 34.0695C19.096 33.3778 18.3289 33.7655 18.586 35.191C18.7138 35.8985 19.9016 37.106 21.0114 38.2343C22.1373 39.3792 23.1828 40.4421 22.9595 40.8183C22.5158 41.5655 20.9532 39.9406 20.9532 39.9406C20.9532 39.9406 16.0604 35.4881 14.9952 36.6485C14.0134 37.718 15.5275 38.6271 17.8609 40.0282C18.0594 40.1475 18.2638 40.2703 18.4731 40.3969C21.1426 42.0131 21.3503 42.4395 20.9715 43.051C20.8316 43.2769 19.9379 42.7404 18.8387 42.0804C16.9649 40.9554 14.4939 39.472 14.1451 40.7998C13.843 41.9489 15.6608 42.653 17.3094 43.2917C18.6828 43.8237 19.9391 44.3103 19.7544 44.9707C19.5629 45.6553 18.5249 45.0844 17.39 44.46C16.1162 43.759 14.7205 42.991 14.2639 43.8577C13.4005 45.496 20.2194 47.4246 20.2754 47.4387C22.4785 48.0101 28.0735 49.2209 30.0291 46.3552ZM39.091 46.3552C37.6843 44.2922 37.7841 42.7439 39.7142 40.815C41.6443 38.8861 42.7679 36.0652 42.7679 36.0652C42.7679 36.0652 43.187 34.4264 44.1432 34.5771C45.0995 34.7276 45.8012 37.1761 43.7989 38.6749C41.7966 40.1738 44.1971 41.19 44.968 39.7835C45.7386 38.3768 47.8414 34.7611 48.9322 34.0695C50.023 33.3778 50.7903 33.7655 50.5332 35.191C50.4055 35.8985 49.2177 37.1063 48.1077 38.2346C46.982 39.3792 45.9364 40.4421 46.1598 40.8183C46.6032 41.5655 48.1672 39.9396 48.1672 39.9396C48.1672 39.9396 53.0598 35.4872 54.125 36.6476C55.1068 37.7171 53.5925 38.6264 51.2591 40.0278C51.0606 40.1468 50.8564 40.2694 50.6471 40.3962C47.9774 42.0122 47.7699 42.4388 48.1487 43.05C48.2886 43.276 49.1823 42.7395 50.2813 42.0797C52.1553 40.9547 54.6263 39.4711 54.9751 40.7988C55.2772 41.948 53.4594 42.6523 51.8106 43.291C50.4371 43.823 49.1811 44.3093 49.3656 44.97C49.557 45.6546 50.5946 45.0835 51.729 44.4591C53.0028 43.7581 54.3988 42.9898 54.8556 43.8567C55.719 45.4962 48.8992 47.4228 48.8438 47.437C46.6407 48.0101 41.0457 49.2209 39.091 46.3552Z" fill="#FFD21E"/>
<path fill-rule="evenodd" clip-rule="evenodd" d="M40.2031 23.6618C40.4799 23.7598 40.6859 24.0581 40.8818 24.3417C41.1467 24.7254 41.3932 25.0821 41.7715 24.881C42.218 24.6438 42.5839 24.2796 42.8232 23.8343C43.0625 23.3891 43.1642 22.8829 43.1157 22.3798C43.0796 22.0036 42.9605 21.64 42.7669 21.3154C42.5733 20.9908 42.3101 20.7131 41.9965 20.5025C41.6827 20.2918 41.326 20.1534 40.9524 20.0972C40.5786 20.0409 40.197 20.0683 39.8351 20.1773C39.3511 20.3231 38.9213 20.609 38.5997 20.999C38.2784 21.3889 38.0797 21.8654 38.0288 22.3683C37.9782 22.8712 38.0778 23.3779 38.315 23.8242C38.4903 24.154 38.8793 23.9986 39.29 23.8343C39.612 23.7056 39.9472 23.5716 40.2031 23.6618ZM28.1618 23.662C27.885 23.76 27.6788 24.0584 27.4829 24.3419C27.218 24.7254 26.9715 25.0823 26.5932 24.8812C26.2597 24.7038 25.9697 24.4544 25.744 24.1514C25.5183 23.8484 25.3627 23.4991 25.2882 23.1286C25.2136 22.7582 25.2221 22.3759 25.313 22.0092C25.4042 21.6424 25.5753 21.3004 25.8141 21.0077C26.0534 20.7152 26.3543 20.4793 26.6956 20.3171C27.0368 20.1548 27.41 20.0703 27.7878 20.0694C28.1656 20.0686 28.539 20.1515 28.8809 20.3123C29.2229 20.473 29.525 20.7076 29.7654 20.9991C30.087 21.389 30.2857 21.8656 30.3366 22.3686C30.3872 22.8715 30.2876 23.3782 30.0502 23.8244C29.8744 24.1542 29.4854 23.9986 29.0747 23.8343C28.7529 23.7056 28.4178 23.5716 28.1618 23.662ZM38.3403 34.6193C40.2488 33.1155 40.9498 30.6609 40.9498 29.1487C40.9498 27.9534 40.1454 28.3296 38.858 28.9669L38.7856 29.003C37.6036 29.5882 36.0305 30.3673 34.3036 30.3673C32.5765 30.3673 31.0034 29.588 29.8219 29.0027C28.4928 28.3444 27.6591 27.9314 27.6591 29.149C27.6591 30.7087 28.4049 33.2702 30.4522 34.7585C30.7222 34.2101 31.1023 33.7233 31.5692 33.3286C32.0358 32.9339 32.5791 32.64 33.1648 32.4649C33.3692 32.404 33.5797 32.7558 33.7953 33.1158C34.0032 33.4634 34.2155 33.8187 34.4318 33.8187C34.662 33.8187 34.8884 33.4685 35.1094 33.1266C35.3403 32.7694 35.5653 32.4211 35.783 32.4907C36.879 32.8425 37.7956 33.6054 38.3403 34.6193Z" fill="#32343D"/>
<path d="M38.3396 34.6191C37.3456 35.4023 36.0244 35.9276 34.3041 35.9276C32.6876 35.9276 31.4232 35.464 30.4521 34.7583C30.7224 34.2101 31.1028 33.7233 31.5694 33.3288C32.0361 32.9341 32.5793 32.64 33.1648 32.4647C33.5663 32.3449 33.9914 33.8184 34.4316 33.8184C34.9029 33.8184 35.3569 32.3543 35.783 32.4905C36.8785 32.8425 37.7949 33.6054 38.3396 34.6191Z" fill="#FF323D"/>
<path fill-rule="evenodd" clip-rule="evenodd" d="M23.5984 25.7885C23.417 25.9106 23.2134 25.9957 22.9991 26.0388C22.7848 26.0819 22.564 26.0824 22.3496 26.0402C22.1351 25.9978 21.9311 25.9137 21.7492 25.7925C21.5673 25.6711 21.4112 25.5152 21.2897 25.3334C21.1682 25.1517 21.0838 24.9476 21.0413 24.7334C20.9988 24.5189 20.9991 24.2981 21.042 24.0837C21.085 23.8694 21.1699 23.6658 21.2917 23.4841C21.4136 23.3027 21.5701 23.147 21.7522 23.0261C22.1185 22.783 22.5663 22.695 22.9974 22.7814C23.4285 22.8678 23.8078 23.1216 24.0521 23.4872C24.2963 23.8528 24.3859 24.3002 24.3008 24.7315C24.2157 25.163 23.9631 25.5431 23.5984 25.7885ZM47.3668 25.7885C47.1854 25.9106 46.9817 25.9957 46.7675 26.0388C46.5533 26.0819 46.3325 26.0824 46.1181 26.0402C45.9036 25.9978 45.6995 25.9137 45.5176 25.7925C45.3357 25.6711 45.1796 25.5152 45.0582 25.3334C44.9366 25.1517 44.8522 24.9476 44.8098 24.7334C44.7674 24.5189 44.7676 24.2981 44.8105 24.0837C44.8534 23.8694 44.9382 23.6658 45.0601 23.4841C45.182 23.3027 45.3385 23.147 45.5206 23.0261C45.887 22.783 46.3349 22.695 46.7659 22.7814C47.1969 22.8678 47.5761 23.1216 47.8206 23.4872C48.0648 23.8528 48.1543 24.3002 48.0692 24.7315C47.9842 25.163 47.7315 25.5431 47.3668 25.7885Z" fill="#FFAD03"/>
</svg>
